<?xml version="1.0" standalone="no"?>
<!DOCTYPE svg PUBLIC "-//W3C//DTD SVG 20010904//EN"
 "http://www.w3.org/TR/2001/REC-SVG-20010904/DTD/svg10.dtd">
<svg version="1.0" xmlns="http://www.w3.org/2000/svg"
 width="383.000000pt" height="189.000000pt" viewBox="0 0 383.000000 189.000000"
 preserveAspectRatio="xMidYMid meet">

<g transform="translate(0.000000,189.000000) scale(0.100000,-0.100000)"
fill="#000000" stroke="none">
<path d="M0 945 l0 -945 1915 0 1915 0 0 945 0 945 -1915 0 -1915 0 0 -945z
m1855 790 c-13 -142 -16 -225 -7 -225 5 0 10 28 10 63 3 93 13 187 22 187 4 0
13 -7 20 -16 13 -14 7 -86 -17 -206 -3 -16 -1 -28 4 -28 5 0 15 40 21 89 15
114 19 123 42 111 17 -9 17 -14 -5 -105 -12 -52 -19 -95 -15 -95 4 0 12 24 19
53 22 100 32 127 46 127 25 0 25 -16 1 -96 -13 -44 -22 -81 -20 -83 6 -7 8 -2
35 84 20 64 29 81 46 83 21 3 21 2 -8 -75 -16 -43 -34 -80 -40 -82 -8 -2 -8
-5 0 -10 15 -10 -6 -71 -25 -71 -7 0 -47 7 -87 16 -68 15 -79 15 -145 0 -39
-9 -77 -16 -85 -16 -17 0 -41 70 -24 71 9 0 9 2 0 5 -14 6 -68 152 -60 160 17
17 36 -12 58 -85 13 -44 27 -81 32 -81 9 0 11 -8 -18 84 -25 80 -25 96 0 96
14 0 24 -27 46 -127 7 -29 16 -53 21 -53 10 0 12 -11 -16 98 -23 89 -23 93 -6
102 11 6 21 7 23 2 3 -4 11 -51 18 -105 7 -53 17 -97 21 -97 11 0 10 4 -8 120
-13 79 -13 104 -4 115 7 8 16 15 20 15 9 0 19 -79 22 -182 2 -38 8 -68 13 -68
7 0 6 45 -2 136 -11 122 -11 138 4 161 l17 25 18 -24 c14 -18 17 -35 13 -73z
m-395 -144 c0 -19 3 -22 9 -12 5 8 16 11 27 7 13 -5 15 -9 6 -18 -17 -17 -15
-26 9 -38 16 -9 26 -8 46 5 23 16 25 16 21 -2 -4 -21 -66 -30 -97 -14 -16 9
-22 6 -36 -15 -16 -24 -21 -26 -69 -21 -49 4 -52 3 -71 -27 -18 -27 -27 -31
-63 -31 -36 0 -43 -4 -53 -28 -17 -40 -51 -60 -88 -52 -62 13 -93 -17 -48 -48
l22 -16 -21 0 c-12 -1 -32 7 -43 17 -21 16 -21 19 -7 52 8 19 16 28 16 20 0
-12 3 -11 11 3 7 11 17 16 29 12 10 -3 20 0 23 9 4 11 1 13 -10 9 -11 -4 -14
-2 -9 5 12 20 34 13 40 -13 7 -28 36 -34 56 -10 16 19 6 47 -15 39 -8 -3 -15
-1 -15 5 0 15 47 44 60 36 5 -3 13 1 16 9 3 9 12 16 19 16 20 0 30 -21 14 -31
-10 -6 -11 -11 -3 -19 17 -17 70 31 61 54 -4 11 -13 16 -22 12 -8 -3 -17 -1
-20 4 -7 12 5 41 15 35 5 -3 25 2 44 12 28 13 39 14 48 5 9 -9 8 -15 -6 -25
-16 -12 -16 -14 -3 -26 19 -15 69 -11 75 7 2 8 -2 12 -11 10 -9 -2 -16 0 -16
5 -2 22 1 26 22 29 15 2 22 10 23 25 1 12 -3 20 -8 17 -5 -3 -7 -12 -4 -20 3
-8 1 -14 -5 -14 -15 0 -24 33 -11 38 7 2 10 7 7 12 -3 4 4 6 15 3 14 -4 20
-14 20 -32z m780 3 c0 -13 -4 -24 -10 -24 -5 0 -10 7 -10 16 0 13 -3 14 -13 5
-8 -6 -17 -7 -22 -3 -4 4 -5 0 -3 -8 3 -8 10 -14 16 -13 6 2 23 -2 37 -7 31
-12 35 -41 4 -33 -16 4 -20 2 -17 -8 6 -19 68 -24 79 -7 5 8 3 17 -6 24 -23
17 6 39 32 25 10 -6 30 -15 46 -21 32 -11 37 -41 6 -37 -12 1 -24 -3 -26 -10
-5 -14 40 -63 57 -63 14 0 13 27 -2 32 -16 6 -1 28 19 28 9 0 25 7 35 16 14
13 21 14 32 5 15 -13 11 -41 -6 -41 -5 0 -6 5 -3 10 3 6 1 10 -4 10 -20 0 -11
-20 14 -32 27 -12 36 -44 10 -34 -21 8 -31 -20 -15 -39 7 -8 21 -15 32 -15 15
0 18 5 13 19 -3 11 -1 22 4 26 7 4 9 -1 5 -12 -5 -16 -4 -16 10 1 13 17 18 18
29 6 9 -10 9 -12 0 -6 -8 4 -13 1 -13 -9 0 -12 7 -14 28 -9 18 4 23 3 14 -4
-11 -7 -11 -10 2 -15 9 -4 16 -1 16 6 0 7 8 -3 17 -22 16 -33 16 -34 -6 -52
-13 -11 -33 -19 -45 -19 -21 0 -20 1 3 19 16 13 22 24 17 36 -5 15 -14 16 -54
11 -55 -7 -83 7 -101 52 -10 24 -17 28 -41 24 -34 -5 -75 18 -84 46 -6 16 -14
18 -56 14 -43 -4 -52 -1 -72 21 -18 19 -28 23 -41 16 -10 -6 -34 -9 -55 -7
-30 2 -38 7 -40 27 l-4 23 23 -21 c27 -25 42 -26 59 -6 10 12 10 18 0 30 -10
12 -9 16 6 22 11 3 30 15 43 25 28 21 41 16 41 -18z m-946 8 c-1 -7 -2 -21 -2
-32 -1 -11 -7 -17 -15 -14 -10 4 -15 44 -8 62 3 9 26 -6 25 -16z m1097 -3 c9
-17 8 -20 -2 -14 -9 6 -11 4 -6 -8 3 -9 0 -18 -9 -21 -12 -4 -14 -1 -9 14 4
11 2 20 -4 20 -6 0 -11 -4 -11 -10 0 -5 -4 -10 -10 -10 -5 0 -10 7 -10 16 0 8
4 13 9 10 5 -3 11 1 15 9 8 21 23 19 37 -6z m-1070 -22 c-13 -13 -26 -3 -16
12 3 6 11 8 17 5 6 -4 6 -10 -1 -17z m-121 -84 c0 -9 -6 -13 -15 -9 -8 3 -15
1 -15 -4 0 -6 -4 -10 -10 -10 -14 0 -12 38 3 43 19 6 37 -3 37 -20z m290 -3
c0 -5 -4 -10 -10 -10 -5 0 -10 5 -10 10 0 6 5 10 10 10 6 0 10 -4 10 -10z
m108 -2 c-3 -7 1 -19 9 -26 26 -26 12 -39 -79 -74 -51 -19 -144 -55 -206 -78
l-113 -44 -26 27 c-15 14 -25 28 -22 30 4 4 430 175 437 177 2 0 2 -6 0 -12z
m717 -93 c94 -37 172 -69 174 -71 3 -3 -7 -16 -21 -31 l-26 -26 -94 35 c-241
91 -318 124 -318 135 0 6 6 18 13 25 8 7 12 19 9 26 -4 14 -11 16 263 -93z
m-130 95 c3 -5 -1 -10 -9 -10 -9 0 -16 5 -16 10 0 6 4 10 9 10 6 0 13 -4 16
-10z m-825 -50 c0 -5 -7 -10 -15 -10 -8 0 -15 5 -15 10 0 6 7 10 15 10 8 0 15
-4 15 -10z m960 0 c0 -5 -7 -10 -15 -10 -8 0 -15 5 -15 10 0 6 7 10 15 10 8 0
15 -4 15 -10z m-248 -84 c133 -46 263 -92 287 -102 l44 -17 -7 -91 c-7 -106
-28 -229 -61 -371 -55 -229 -114 -346 -274 -538 -69 -83 -217 -217 -240 -217
-23 0 -275 260 -328 340 -123 183 -186 376 -228 696 -24 187 -27 178 53 208
74 29 493 175 504 175 3 1 116 -37 250 -83z m-842 29 c0 -8 -4 -15 -10 -15 -5
0 -10 7 -10 15 0 8 5 15 10 15 6 0 10 -7 10 -15z m1210 0 c0 -8 -4 -15 -10
-15 -5 0 -10 7 -10 15 0 8 5 15 10 15 6 0 10 -7 10 -15z m-1342 -66 c-2 -6 -8
-10 -13 -10 -5 0 -11 4 -13 10 -2 6 4 11 13 11 9 0 15 -5 13 -11z m1482 3 c0
-13 -12 -22 -22 -16 -10 6 -1 24 13 24 5 0 9 -4 9 -8z m-1533 -157 c75 -31 93
-66 44 -83 -22 -8 -34 -7 -48 3 -10 8 -37 15 -61 15 -35 0 -49 -6 -73 -29 -16
-16 -29 -37 -29 -46 0 -9 -4 -13 -10 -10 -17 10 -11 68 10 103 35 56 100 75
167 47z m1666 1 c18 -7 41 -23 51 -35 22 -24 36 -121 17 -121 -6 0 -11 9 -11
19 0 11 -14 31 -31 45 -35 30 -92 35 -126 11 -18 -12 -27 -13 -50 -3 -15 7
-30 13 -32 15 -9 6 45 56 74 69 39 17 68 17 108 0z m-1672 -102 c14 -13 26
-14 75 -5 31 6 59 9 61 7 2 -2 -24 -14 -58 -26 l-61 -23 4 -52 c4 -50 3 -53
-19 -51 -13 0 -23 7 -23 17 0 8 -5 20 -12 27 -43 43 -36 -30 7 -81 38 -44 52
-47 158 -31 l37 6 0 -62 c0 -56 -2 -61 -16 -49 -10 8 -13 21 -9 36 8 34 -2 45
-28 32 -12 -7 -24 -13 -26 -15 -2 -2 19 -24 46 -48 59 -53 80 -94 64 -124 -6
-12 -11 -32 -11 -46 0 -33 -23 -34 -37 -3 -9 19 -7 28 8 48 23 29 24 52 4 69
-12 10 -20 7 -44 -18 -31 -34 -41 -32 -41 9 0 18 6 28 20 32 23 6 26 22 6 30
-8 3 -31 -7 -51 -23 -20 -16 -39 -30 -43 -32 -4 -2 -20 -23 -35 -46 -16 -24
-41 -51 -55 -59 -21 -12 -32 -31 -48 -89 -11 -41 -18 -74 -15 -74 4 0 5 -18 3
-41 -4 -35 0 -45 29 -76 19 -19 45 -41 59 -48 29 -15 58 -91 41 -108 -16 -16
-38 9 -45 53 -6 36 -12 43 -58 68 -28 15 -62 37 -75 49 -20 19 -25 20 -30 8
-3 -10 15 -37 51 -75 47 -49 56 -64 56 -94 0 -37 -5 -42 -29 -27 -8 5 -11 16
-7 29 4 13 1 22 -9 26 -8 3 -15 11 -15 19 0 7 -20 33 -45 57 -46 45 -53 66
-34 102 16 30 3 58 -46 101 -46 41 -77 43 -50 4 17 -25 20 -41 5 -32 -15 9
-13 2 16 -49 15 -26 24 -50 20 -53 -3 -3 -8 2 -12 11 -12 31 -22 16 -12 -20
11 -41 3 -103 -17 -130 -11 -16 -12 -12 -8 31 l6 50 -31 -32 c-16 -18 -37 -33
-45 -33 -13 0 -10 9 10 46 26 46 26 46 4 39 -20 -6 -22 -5 -12 13 6 12 11 33
10 49 l0 28 -12 -25 -11 -25 -4 33 c-3 28 -6 32 -24 26 -15 -4 -18 -3 -13 6 4
7 11 28 15 46 6 27 4 36 -8 43 -14 8 -12 11 11 16 15 4 37 5 50 1 31 -7 63 16
70 53 4 20 20 39 49 59 24 17 58 46 77 66 l34 35 -7 86 c-5 72 -3 95 15 147
30 91 46 117 79 131 22 9 71 -1 91 -19z m1682 3 c20 -22 35 -53 57 -117 17
-52 20 -75 14 -144 l-6 -82 32 -38 c18 -20 53 -51 77 -67 30 -21 46 -40 50
-60 7 -36 35 -53 88 -54 l40 0 2 -57 c2 -48 0 -56 -14 -51 -13 5 -15 0 -11
-25 5 -37 -4 -42 -20 -9 -10 21 -11 21 -11 -6 -1 -16 4 -38 10 -49 10 -18 9
-20 -5 -15 -22 9 -20 -9 5 -49 18 -30 19 -34 4 -34 -9 0 -31 15 -48 33 l-30
32 6 -48 c8 -58 -7 -55 -23 4 -8 27 -8 55 -2 85 10 48 7 54 -14 27 -12 -16
-13 -15 -4 9 5 16 17 39 25 52 12 19 13 25 3 28 -10 4 -9 11 5 31 9 15 13 28
7 32 -11 7 -110 -86 -110 -103 0 -7 7 -27 16 -44 l16 -31 -51 -51 c-28 -28
-51 -56 -51 -62 0 -5 -5 -15 -12 -22 -7 -7 -13 -22 -13 -35 0 -13 -7 -23 -19
-25 -17 -4 -18 1 -13 38 4 35 16 54 62 100 47 47 54 59 42 69 -12 9 -16 8 -20
-3 -3 -9 -28 -26 -56 -40 -52 -27 -91 -71 -91 -103 0 -19 -18 -43 -32 -43 -22
0 6 107 30 114 9 4 35 23 57 44 l41 37 -7 65 c-16 158 -19 166 -55 183 -18 9
-46 36 -61 59 -15 24 -31 44 -35 46 -4 2 -23 16 -43 32 -20 16 -43 26 -51 23
-21 -8 -17 -22 11 -33 29 -11 28 -10 15 -45 l-10 -27 -30 32 c-25 27 -33 30
-45 20 -15 -13 -21 -50 -7 -50 4 0 12 -12 19 -26 9 -20 9 -30 0 -45 -14 -22
-26 -25 -31 -6 -2 6 -9 29 -15 50 -11 33 -10 41 10 74 17 28 22 48 20 93 -1
32 1 60 6 63 4 3 41 2 81 -2 l72 -7 34 36 c19 19 35 42 36 50 7 54 -13 68 -33
23 -7 -16 -21 -29 -33 -30 -19 -2 -20 2 -16 51 l4 53 -61 23 c-34 12 -60 24
-58 26 2 2 30 -1 61 -7 47 -8 61 -8 74 4 10 8 24 17 32 20 21 9 69 0 83 -16z"/>
<path d="M2445 1470 c3 -5 8 -10 11 -10 2 0 4 5 4 10 0 6 -5 10 -11 10 -5 0
-7 -4 -4 -10z"/>
<path d="M1550 1460 c-8 -5 -10 -10 -5 -10 6 0 17 5 25 10 8 5 11 10 5 10 -5
0 -17 -5 -25 -10z"/>
<path d="M2130 1440 c8 -5 20 -10 25 -10 6 0 3 5 -5 10 -8 5 -19 10 -25 10 -5
0 -3 -5 5 -10z"/>
<path d="M1640 1349 c-96 -32 -217 -75 -267 -95 -107 -41 -103 -32 -82 -181
62 -463 170 -692 449 -948 92 -84 78 -83 160 -10 184 165 299 329 368 525 43
123 102 431 102 533 l0 45 -67 27 c-74 30 -469 165 -481 165 -4 -1 -86 -28
-182 -61z m391 -30 c112 -39 227 -79 254 -88 l50 -18 3 -55 c7 -132 -65 -468
-128 -603 -64 -134 -182 -284 -312 -396 l-69 -60 -27 20 c-109 78 -257 248
-330 379 -84 153 -161 463 -162 654 l0 57 53 19 c111 41 447 160 458 161 3 1
97 -31 210 -70z"/>
<path d="M1645 1304 c-334 -115 -310 -103 -313 -147 -5 -60 25 -249 64 -395
41 -159 97 -277 185 -388 62 -79 226 -244 242 -244 18 0 162 138 224 215 90
111 142 203 180 320 43 126 80 312 89 435 l7 95 -64 22 c-35 12 -147 50 -249
86 l-185 64 -180 -63z m172 -108 c-4 -10 -18 -16 -39 -16 l-33 1 30 24 c30 25
53 20 42 -9z m92 -13 c2 -2 -12 -3 -32 -3 -33 0 -37 3 -37 26 l0 25 33 -22
c17 -12 34 -24 36 -26z m-179 12 c-7 -8 -27 -15 -44 -14 l-31 0 40 18 c44 20
54 19 35 -4z m259 -11 c2 -2 -10 -4 -27 -4 -21 0 -35 7 -42 20 -10 18 -9 19
27 3 21 -8 40 -17 42 -19z m-359 6 c-8 -5 -22 -9 -30 -9 -10 0 -8 3 5 9 27 12
43 12 25 0z m421 -8 c-7 -2 -18 1 -23 6 -8 8 -4 9 13 5 13 -4 18 -8 10 -11z
m-471 -32 c0 -6 -11 -28 -25 -50 -23 -36 -29 -40 -68 -40 l-42 0 52 50 c48 47
83 63 83 40z m112 5 c3 -3 0 -25 -7 -48 l-12 -42 -57 -3 c-31 -2 -56 0 -56 3
0 11 41 69 58 83 16 12 64 17 74 7z m117 -9 c7 -8 11 -30 9 -48 -3 -33 -3 -33
-60 -36 -65 -3 -69 2 -44 63 13 30 20 35 49 35 19 0 40 -6 46 -14z m119 2 c6
-7 13 -30 17 -50 l7 -38 -56 0 -56 0 0 43 c0 24 3 47 7 50 11 12 70 8 81 -5z
m104 0 c17 -14 58 -72 58 -83 0 -3 -25 -5 -56 -3 l-57 3 -12 42 c-7 23 -10 45
-7 48 10 10 58 5 74 -7z m121 -38 l52 -50 -41 0 c-37 0 -44 4 -68 40 -51 77
-18 83 57 10z m-639 -112 c-8 -49 -17 -58 -61 -58 -41 0 -46 10 -33 60 11 39
12 40 56 40 l44 0 -6 -42z m151 0 c-4 -24 -9 -46 -12 -50 -7 -12 -111 -9 -118
2 -4 6 -4 29 0 50 l7 40 65 0 65 0 -7 -42z m153 -2 c2 -24 -2 -42 -10 -47 -19
-12 -116 -11 -123 1 -4 6 -4 29 0 51 l7 40 61 -3 62 -3 3 -39z m148 9 c11 -58
2 -66 -63 -63 l-58 3 -3 48 -3 47 60 0 60 0 7 -35z m152 -7 c10 -53 1 -60 -71
-56 l-52 3 -6 43 c-3 23 -3 44 -1 47 3 3 31 5 63 5 l58 0 9 -42z m112 2 c13
-50 8 -60 -33 -60 -44 0 -53 9 -61 58 l-6 42 44 0 c44 0 45 -1 56 -40z m-725
-82 c2 -7 6 -30 10 -51 l6 -38 -47 3 c-45 3 -48 5 -57 37 -4 18 -6 40 -3 47 7
18 85 19 91 2z m158 -27 c13 -53 5 -61 -62 -61 l-60 0 -7 35 c-11 58 -2 66 63
63 55 -3 57 -4 66 -37z m152 -11 l0 -45 -65 0 -65 0 -3 33 c-6 58 1 63 70 60
l63 -3 0 -45z m153 21 c2 -12 1 -34 -2 -47 -6 -22 -11 -24 -65 -24 -62 0 -71
7 -71 54 0 36 20 47 80 44 49 -3 55 -6 58 -27z m154 -1 c-8 -72 -7 -71 -75
-68 l-62 3 4 40 c1 22 5 44 8 48 3 4 32 7 66 5 60 -3 62 -4 59 -28z m114 16
c3 -7 1 -29 -3 -47 -9 -32 -12 -34 -57 -37 l-48 -3 7 43 c4 24 9 46 12 51 8
13 83 8 89 -7z m-680 -146 c20 -30 24 -44 16 -52 -17 -17 -53 3 -91 51 l-33
41 41 0 c36 0 43 -4 67 -40z m125 13 c24 -63 10 -83 -47 -69 -21 6 -74 68 -74
88 0 5 25 8 55 8 51 0 56 -2 66 -27z m137 -11 c5 -45 -13 -64 -57 -60 -36 3
-48 16 -66 76 -7 23 -5 23 57 20 l63 -3 3 -33z m134 13 c-8 -47 -27 -70 -60
-73 -18 -2 -40 2 -48 9 -14 12 -20 70 -7 83 4 4 32 6 63 4 49 -3 55 -5 52 -23z
m118 -20 c-30 -44 -60 -61 -97 -53 -20 4 -21 26 -4 71 10 25 15 27 71 27 l61
0 -31 -45z m130 36 c0 -14 -88 -91 -104 -91 -27 0 -27 19 0 60 23 35 31 40 65
40 22 0 39 -4 39 -9z m-569 -121 c13 -10 20 -19 16 -20 -11 0 -67 29 -67 35 0
12 30 3 51 -15z m96 -2 c37 -35 27 -40 -27 -13 -27 14 -50 28 -50 30 0 14 57
2 77 -17z m91 -10 c4 -37 -16 -36 -54 3 l-29 30 40 -3 c35 -3 40 -6 43 -30z
m92 24 c0 -14 -60 -53 -70 -47 -11 7 -13 38 -3 48 9 10 73 9 73 -1z m90 3 c0
-2 -23 -16 -51 -31 -49 -24 -54 -20 -21 19 13 15 72 25 72 12z m50 -15 c-45
-25 -61 -25 -31 0 13 11 33 20 45 20 17 -1 14 -4 -14 -20z m-239 -203 c54 -97
78 -111 133 -82 45 24 60 11 23 -21 -36 -31 -87 -32 -121 -1 -14 12 -39 46
-55 76 l-29 55 -38 -77 c-21 -42 -44 -77 -51 -77 -7 0 -13 2 -13 5 0 12 93
205 99 205 3 0 27 -38 52 -83z m163 44 c27 -28 12 -39 -23 -18 -41 24 -68 21
-96 -9 -21 -23 -26 -24 -31 -10 -21 55 101 85 150 37z"/>
<path d="M2470 784 c0 -31 2 -34 18 -25 39 21 43 36 12 48 -30 11 -30 11 -30
-23z"/>
</g>
</svg>
